<svg width="200" height="200" viewBox="0 0 200 200" fill="none" xmlns="http://www.w3.org/2000/svg">
  <!-- Background Circle -->
  <circle cx="100" cy="100" r="95" fill="url(#gradient1)" stroke="url(#gradient2)" stroke-width="2"/>
  
  <!-- Garuda Eagle Wings -->
  <path d="M100 60 L80 40 L70 45 L75 55 L85 65 Z" fill="url(#gradient3)"/>
  <path d="M100 60 L120 40 L130 45 L125 55 L115 65 Z" fill="url(#gradient3)"/>
  
  <!-- Garuda Body -->
  <path d="M100 60 L95 85 L100 95 L105 85 Z" fill="url(#gradient4)"/>
  
  <!-- Garuda Head -->
  <circle cx="100" cy="55" r="8" fill="url(#gradient4)"/>
  
  <!-- Shield Shape -->
  <path d="M100 90 L85 100 L85 120 L100 130 L115 120 L115 100 Z" fill="url(#gradient5)" stroke="white" stroke-width="2"/>
  
  <!-- Text GB -->
  <text x="100" y="115" font-family="Arial, sans-serif" font-size="20" font-weight="bold" fill="white" text-anchor="middle">GB</text>
  
  <!-- Transport Icons -->
  <!-- Truck -->
  <rect x="40" y="140" width="25" height="15" fill="url(#gradient6)" rx="2"/>
  <circle cx="45" cy="158" r="3" fill="url(#gradient4)"/>
  <circle cx="60" cy="158" r="3" fill="url(#gradient4)"/>
  
  <!-- Ship -->
  <path d="M135 145 L125 155 L145 155 Z" fill="url(#gradient6)"/>
  <rect x="142" y="140" width="3" height="10" fill="url(#gradient4)"/>
  
  <!-- Gradients -->
  <defs>
    <linearGradient id="gradient1" x1="0%" y1="0%" x2="100%" y2="100%">
      <stop offset="0%" style="stop-color:#1e40af;stop-opacity:1" />
      <stop offset="100%" style="stop-color:#1e3a8a;stop-opacity:1" />
    </linearGradient>
    
    <linearGradient id="gradient2" x1="0%" y1="0%" x2="100%" y2="100%">
      <stop offset="0%" style="stop-color:#fbbf24;stop-opacity:1" />
      <stop offset="100%" style="stop-color:#f59e0b;stop-opacity:1" />
    </linearGradient>
    
    <linearGradient id="gradient3" x1="0%" y1="0%" x2="100%" y2="100%">
      <stop offset="0%" style="stop-color:#fbbf24;stop-opacity:1" />
      <stop offset="100%" style="stop-color:#f59e0b;stop-opacity:1" />
    </linearGradient>
    
    <linearGradient id="gradient4" x1="0%" y1="0%" x2="100%" y2="100%">
      <stop offset="0%" style="stop-color:#ffffff;stop-opacity:1" />
      <stop offset="100%" style="stop-color:#e5e7eb;stop-opacity:1" />
    </linearGradient>
    
    <linearGradient id="gradient5" x1="0%" y1="0%" x2="100%" y2="100%">
      <stop offset="0%" style="stop-color:#dc2626;stop-opacity:1" />
      <stop offset="100%" style="stop-color:#b91c1c;stop-opacity:1" />
    </linearGradient>
    
    <linearGradient id="gradient6" x1="0%" y1="0%" x2="100%" y2="100%">
      <stop offset="0%" style="stop-color:#ffffff;stop-opacity:1" />
      <stop offset="100%" style="stop-color:#d1d5db;stop-opacity:1" />
    </linearGradient>
  </defs>
</svg>