<svg width="512" height="512" viewBox="0 0 512 512" fill="none" xmlns="http://www.w3.org/2000/svg">
  <!-- Background Circle -->
  <circle cx="256" cy="256" r="240" fill="url(#gradient1)" stroke="url(#gradient2)" stroke-width="4"/>
  
  <!-- Garuda Eagle Wings -->
  <path d="M256 150 L200 100 L180 110 L190 140 L220 170 Z" fill="url(#gradient3)"/>
  <path d="M256 150 L312 100 L332 110 L322 140 L292 170 Z" fill="url(#gradient3)"/>
  
  <!-- Garuda Body -->
  <path d="M256 150 L240 220 L256 250 L272 220 Z" fill="url(#gradient4)"/>
  
  <!-- Garuda Head -->
  <circle cx="256" cy="135" r="20" fill="url(#gradient4)"/>
  
  <!-- Shield Shape -->
  <path d="M256 230 L215 255 L215 310 L256 335 L297 310 L297 255 Z" fill="url(#gradient5)" stroke="white" stroke-width="4"/>
  
  <!-- Text GB -->
  <text x="256" y="290" font-family="Arial, sans-serif" font-size="48" font-weight="bold" fill="white" text-anchor="middle">GB</text>
  
  <!-- Transport Icons -->
  <!-- Truck -->
  <rect x="100" y="360" width="60" height="35" fill="url(#gradient6)" rx="4"/>
  <circle cx="115" cy="405" r="8" fill="url(#gradient4)"/>
  <circle cx="145" cy="405" r="8" fill="url(#gradient4)"/>
  
  <!-- Ship -->
  <path d="M350 365 L320 395 L380 395 Z" fill="url(#gradient6)"/>
  <rect x="370" y="350" width="8" height="25" fill="url(#gradient4)"/>
  
  <!-- Gradients -->
  <defs>
    <linearGradient id="gradient1" x1="0%" y1="0%" x2="100%" y2="100%">
      <stop offset="0%" style="stop-color:#1e40af;stop-opacity:1" />
      <stop offset="100%" style="stop-color:#1e3a8a;stop-opacity:1" />
    </linearGradient>
    
    <linearGradient id="gradient2" x1="0%" y1="0%" x2="100%" y2="100%">
      <stop offset="0%" style="stop-color:#fbbf24;stop-opacity:1" />
      <stop offset="100%" style="stop-color:#f59e0b;stop-opacity:1" />
    </linearGradient>
    
    <linearGradient id="gradient3" x1="0%" y1="0%" x2="100%" y2="100%">
      <stop offset="0%" style="stop-color:#fbbf24;stop-opacity:1" />
      <stop offset="100%" style="stop-color:#f59e0b;stop-opacity:1" />
    </linearGradient>
    
    <linearGradient id="gradient4" x1="0%" y1="0%" x2="100%" y2="100%">
      <stop offset="0%" style="stop-color:#ffffff;stop-opacity:1" />
      <stop offset="100%" style="stop-color:#e5e7eb;stop-opacity:1" />
    </linearGradient>
    
    <linearGradient id="gradient5" x1="0%" y1="0%" x2="100%" y2="100%">
      <stop offset="0%" style="stop-color:#dc2626;stop-opacity:1" />
      <stop offset="100%" style="stop-color:#b91c1c;stop-opacity:1" />
    </linearGradient>
    
    <linearGradient id="gradient6" x1="0%" y1="0%" x2="100%" y2="100%">
      <stop offset="0%" style="stop-color:#ffffff;stop-opacity:1" />
      <stop offset="100%" style="stop-color:#d1d5db;stop-opacity:1" />
    </linearGradient>
  </defs>
</svg>